<?xml version="1.0" encoding="utf-8"?>
<!-- Generator: Adobe Illustrator 20.1.0, SVG Export Plug-In . SVG Version: 6.00 Build 0)  -->
<svg version="1.1"
	 id="svg2" xmlns:cc="http://creativecommons.org/ns#" xmlns:dc="http://purl.org/dc/elements/1.1/" xmlns:rdf="http://www.w3.org/1999/02/22-rdf-syntax-ns#" xmlns:svg="http://www.w3.org/2000/svg"
	 xmlns="http://www.w3.org/2000/svg" xmlns:xlink="http://www.w3.org/1999/xlink" x="0px" y="0px" viewBox="0 0 583.9 269"
	 style="enable-background:new 0 0 583.9 269;" xml:space="preserve">
<style type="text/css">
	.st0{fill:#63778D;}
</style>
<path id="path3340" class="st0" d="M0,267.8c0-0.7,2.6-8,5.8-16.3c5.6-14.5,5.8-15,8.8-15.3l3.1-0.3l5.8,15.3
	c3.2,8.4,6,15.9,6.3,16.6c0.3,0.9-0.8,1.3-3.5,1.3c-3.7,0-4-0.2-5.1-4l-1.2-4h-5.3H9.3l-1.2,4c-1.1,3.7-1.5,4-4.7,4
	C1.3,269,0,268.5,0,267.8z M18,255.7c0-0.2-0.7-2.5-1.6-5.1l-1.6-4.8l-1.9,4.9c-1,2.7-1.9,5-1.9,5.1c0,0.1,1.6,0.2,3.5,0.2
	S18,255.9,18,255.7z M32,252.5V236h8c12.1,0,17,3.3,17,11.8c0,3.3-0.6,4.9-2.6,6.9l-2.6,2.6l3.6,5.4c2,3,3.6,5.6,3.6,5.9
	c0,0.3-1.8,0.5-3.9,0.5c-3.6,0-4.1-0.4-7-5c-2.5-4-3.6-5-5.8-5c-2.7,0-2.8,0.1-2.4,5l0.3,5h-4.1H32L32,252.5L32,252.5z M48.8,250.8
	c0.7-0.7,1.2-2.1,1.2-3.3c0-3.1-1.9-4.5-6.5-4.5h-4v4.5v4.5h4C45.7,252,48.1,251.5,48.8,250.8z M61,252.5V236h4h4l4.4,8.7
	c3.2,6.4,4.6,8.3,5.3,7.3c0.5-0.8,2.6-4.6,4.6-8.4c3.4-6.5,3.9-7,7.3-7.3l3.6-0.3v16.6V269h-3.5H87l0-9.3l0-9.3l-3.5,6.8
	c-2.5,4.9-4,6.8-5.4,6.8s-2.9-1.9-5.4-6.8l-3.5-6.8l0,9.3l0,9.3h-4h-4C61,269,61,252.5,61,252.5z M97,268.1c0-0.5,2.6-7.9,5.9-16.3
	c5.7-14.8,6-15.3,8.9-15.6c2.2-0.2,3.2,0.2,3.7,1.5c3,7.7,11.5,30.4,11.5,30.8c0,0.3-1.6,0.5-3.5,0.5c-3.2,0-3.7-0.4-5.1-4l-1.6-4
	l-5,0.3c-4.8,0.3-5.1,0.5-6.2,3.8c-1,3-1.6,3.5-4.8,3.8C98.6,269,97,268.7,97,268.1L97,268.1z M114.6,253.5c-0.9-3.7-2.6-7.9-3-7.4
	c-0.2,0.2-1,2.5-1.9,5.1l-1.6,4.8h3.5C114.9,256,115.1,255.8,114.6,253.5z M134,256v-13h-5h-5v-3.5V236h13.5H151v3.5v3.5h-5h-5v13
	v13h-3.5H134V256z M148,268.5c0-0.4,8.5-23.1,11.5-30.8c0.5-1.3,1.6-1.7,3.7-1.5c2.9,0.3,3.2,0.8,8.9,15.6
	c3.2,8.4,5.9,15.8,5.9,16.3s-1.7,0.8-3.7,0.7c-3.2-0.3-3.8-0.8-4.8-3.8c-1.1-3.3-1.4-3.5-6.2-3.8l-5-0.3l-1.6,4c-1.5,3.7-2,4-5.1,4
	C149.5,269,148,268.8,148,268.5L148,268.5z M165.1,251.1c-0.9-2.7-1.9-4.7-2.1-4.5c-0.3,0.3-1.2,2.5-2.2,4.9l-1.7,4.5h3.8h3.8
	L165.1,251.1L165.1,251.1z M190,252.5V236h11h11v3.5v3.5h-7.5H197v3.5v3.5h6c6,0,6,0,6,3c0,3,0,3-6,3h-6v6.5v6.5h-3.5H190V252.5
	L190,252.5z M215,252.5V236h3.5h3.5v16.5V269h-3.5H215V252.5L215,252.5z M227,252.5V236l2.8,0c2.3,0,4.1,1.7,10.7,10
	c4.3,5.5,7.9,10,8,10c0.1,0,0-4.5-0.2-10l-0.3-10h4.1h4.1v16.5V269l-3.3,0c-2.9,0-4.1-1.1-10.8-9.6l-7.5-9.6l-0.3,9.6l-0.3,9.6h-3.5
	H227V252.5L227,252.5z M258,267.8c0-0.7,2.6-8,5.8-16.3c5.6-14.6,5.8-15,8.8-15.3l3.1-0.3l5.6,14.8c3.1,8.1,5.9,15.6,6.3,16.6
	c0.6,1.5,0.1,1.8-3.2,1.8c-3.7,0-4-0.2-5.1-4l-1.2-4h-5.3h-5.3l-1.2,4c-1.1,3.7-1.5,4-4.7,4C259.3,269,258,268.5,258,267.8z
	 M276,255.7c0-0.2-0.7-2.5-1.6-5.1l-1.6-4.8l-1.9,4.9c-1,2.7-1.9,5-1.9,5.1c0,0.1,1.6,0.2,3.5,0.2S276,255.9,276,255.7L276,255.7z
	 M290,252.5V236h2.8c2.4,0,4,1.4,9.8,8.7c3.8,4.8,7.4,9.3,7.9,10c0.7,0.9,0.9-1.8,0.7-8.7l-0.3-10h4.1h4.1v16.5V269h-3
	c-2.5,0-4.1-1.3-10.6-9.5c-4.2-5.2-7.7-9.5-7.8-9.5c-0.1,0,0,4.3,0.2,9.5l0.3,9.5H294H290L290,252.5L290,252.5z M330.4,267.1
	c-10.1-6.2-11.2-20.6-2-27.6c6.6-5,15-4.3,20.6,1.7c2.6,2.8,2.6,3.1-0.9,4.6c-2.6,1.2-3.2,1.1-5-0.8c-4.4-4.4-11.9-1.5-13.6,5.1
	c-1,4.1,1.2,9.6,4.7,11.4c4.6,2.4,10.6,0.1,10-3.8c-0.1-0.4,1.5,0,3.4,0.9c4.1,1.9,4.3,3.2,1.2,6.1
	C343.9,269.3,335.7,270.3,330.4,267.1L330.4,267.1z M354,252.5V236h3.5h3.5v16.5V269h-3.5H354V252.5z M364,267.8
	c0-0.7,2.7-8,5.8-16.3c5.6-14.5,5.9-15,8.8-15.3l3-0.3l6.2,16c3.4,8.8,6.2,16.3,6.2,16.6s-1.6,0.5-3.6,0.5c-3.2,0-3.7-0.4-5.2-4
	c-1.6-4-1.6-4-6.9-4c-4,0-5.3,0.4-5.3,1.5c0,0.8-0.5,2.6-1.2,4c-0.9,2-1.9,2.5-4.5,2.5C365.3,269,364,268.5,364,267.8L364,267.8z
	 M381.9,254.8c0-0.7-0.8-3-1.8-5.1l-1.7-3.9l-1.6,5.1l-1.6,5.1h3.4C380.6,256,382,255.5,381.9,254.8L381.9,254.8z M396,252.5V236h4
	h4v13v13h8h8v3.5v3.5h-12h-12V252.5z M438.2,267.3c-7.5-3.7-10.7-16.3-6-23.3c3-4.5,6.6-6.9,11-7.6c4.8-0.8,8,0.1,11.7,3.2
	c3.7,3.1,3.9,4.7,0.7,6.4c-2.1,1.1-2.7,1-4.5-0.8c-2.7-2.7-8.4-2.8-11.1-0.1c-4.7,4.7-3.7,13.4,2,16.4c3.4,1.8,3.7,1.8,7.3,0.1
	c4.5-2.2,4.9-4.5,0.7-4.5c-2.5,0-3-0.4-3-2.5c0-2.4,0.3-2.5,6-2.5h6v8.5v8.5H456c-1.6,0-3.1-0.5-3.3-1.1c-0.3-0.9-0.9-0.9-2.5,0
	C447.2,269.5,442,269.2,438.2,267.3z M464,252.5V236h7.6c8.8,0,13.2,1.7,15.7,5.9c2.4,4.1,2.1,8.4-0.8,11.9
	c-1.4,1.6-2.5,3.2-2.5,3.6s1.4,2.8,3,5.5c1.6,2.7,3,5.2,3,5.5c0,0.4-1.7,0.6-3.8,0.6c-3.4,0-4-0.4-6.7-5c-2.4-4.1-3.5-5-5.8-5
	c-2.7,0-2.8,0.2-2.8,5v5h-3.5H464V252.5z M480.5,247.5v-4l-4.8-0.3l-4.8-0.3v4.6v4.6l4.8-0.3l4.8-0.3V247.5L480.5,247.5z M499,266.8
	c-5.2-3.5-7.3-7.1-7.7-13c-0.5-6.7,2.5-12.3,8.2-15.5c7-4,13.3-2.6,19.3,4.1c5.2,6,5.3,14.4,0,21.1
	C514.3,269.2,504.8,270.7,499,266.8z M512.7,259.4c3.2-3.6,3.1-10.6-0.2-13.9c-3.2-3.2-8.4-3.3-11.2-0.2c-4.7,5.1-3.6,13.9,2.1,16.3
	C507.2,263.2,509.8,262.6,512.7,259.4L512.7,259.4z M532.4,267.1c-5-3.1-6.4-7.4-6.4-20V236h3.4h3.4l0.3,11.5
	c0.4,12.9,1.3,14.9,6.9,14.9c5.6,0,6.9-2.8,6.9-15.4V236h3.5h3.5v11.5c0,13-1.1,16.3-6.3,19.5C543.5,269.6,536.5,269.6,532.4,267.1
	L532.4,267.1z M560,252.5V236h7.5c8.7,0,12.7,1.6,14.9,6c4.4,8.5-1.6,17-12,17H567v5v5h-3.5H560V252.5z M576.3,249.8
	c0.7-1.2,0.7-2.4-0.1-4.3c-1-2.1-1.8-2.6-5.2-2.6h-4v4.6v4.6l4.1-0.3C573.6,251.6,575.7,250.8,576.3,249.8L576.3,249.8z M97,180.3
	c0-4.4-0.4-3.7,27.5-47.8c12.2-19.3,26.1-41.3,31-49c4.9-7.7,10.7-16.9,13-20.5c2.3-3.6,10.6-16.6,18.4-29s15.9-25.1,17.9-28.2
	l3.7-5.7l19.8,0L248,0v92v92h-26.3h-26.3l4.6-34.3c2.5-18.8,4.5-34.4,4.4-34.5c-0.1-0.2-2.4,0-5.1,0.4l-4.9,0.7L177,150.1L159.5,184
	h-31.3H97C97,184,97,180.3,97,180.3z M199.9,102.3c6.4-12.6,6.4-12.9,7.6-24.8c0.6-6.6,1-12.2,0.9-12.3
	c-0.2-0.3-29.8,43.5-32.8,48.6c-0.6,1,1.4,1.3,8.6,1.3h9.3L199.9,102.3L199.9,102.3z M253,92V0h53h53v20v20l-31.8,0.3l-31.8,0.3
	l-0.3,18.8L294.9,78h31.4h31.4l0.6,15.2c0.5,11.4,0.3,15.4-0.6,16c-0.7,0.4-15.1,0.8-32,0.8l-30.8,0v37v37h-21h-21V92z M362,92V0
	h62.5H487v30.5V61h-18.5H450V50.2c0-15.8,1-15.2-23.5-15.2h-19.4l-2.1,2.6c-2,2.6-2.1,3.5-2.1,56.3c0,53.3,0,53.7,2.1,55.6
	c1.9,1.7,3.8,1.9,21.4,1.9s19.5-0.2,21.4-1.9c1.5-1.4,2.1-3.1,2.1-6.3V139h-17h-17v-13v-13h35.5H487v35.5V184h-62.5H362L362,92
	L362,92z"/>
</svg>
